<mxfile host="app.diagrams.net" modified="2023-10-13T09:22:25.482Z" agent="Mozilla/5.0 (Windows NT 10.0; Win64; x64) AppleWebKit/537.36 (KHTML, like Gecko) Chrome/117.0.0.0 Safari/537.36" version="22.0.4" etag="eZbVf1LzPs3YC_a5OIaF" type="github">
  <diagram name="Page-1" id="ymEOdlL_oExbGz8z5Luv">
    <mxGraphModel>
      <root>
        <mxCell id="0" />
        <mxCell id="1" parent="0" />
      </root>
    </mxGraphModel>
  </diagram>
</mxfile>
